<svg version="1" xmlns="http://www.w3.org/2000/svg" width="685.333" height="685.333" viewBox="0 0 514.000000 514.000000"><path d="M.5 1.2C.2 1.9.1 117.5.2 258l.3 255.5 129 .3c71 .2 186.3 0 256.3-.4l127.2-.6V1.3L417.8.7C365.4.3 250.1 0 161.7 0 34 0 .8.3.5 1.2zm405.1 92.5c7.9 3.1 12 6.8 15.5 13.8 3 6 3.1 6.8 2.7 16.7-.3 9.3-.6 11-3.5 16.8-3.7 7.6-10.2 15.7-26.3 33-6.4 6.9-14.4 15.7-17.7 19.7-5.8 6.7-14.3 18.5-14.3 19.7 0 .4 10.3.6 22.9.6 22.1 0 22.9-.1 26.2-2.3 2.2-1.5 3.9-3.8 4.9-6.5 1.4-4.1 1.6-4.2 5.9-4.2h4.4l-.6 10.7c-.4 5.8-.7 12.3-.7 14.5v3.8h-42c-48 0-44.2.9-39.5-9.5 5.2-11.9 16.1-27 34-47 18-20.2 23.7-29 26-40.2 4.2-20-6.6-34.8-24.1-33-9.7 1-17.5 7.1-21 16.4l-1.7 4.3H344v-19.1l6.4-2.9c3.5-1.6 10-3.8 14.3-4.9 4.3-1.1 8.7-2.2 9.8-2.5 1.1-.3 7.4-.4 14-.2 9.2.2 13.2.8 17.1 2.3zM212 192.8v4.8l-5 1.3c-3 .8-6.2 2.5-8 4.3-2.5 2.5-3 3.7-3 7.9 0 3.1.8 6.6 2.1 9.2 3.5 6.8 31.1 44.9 31.9 44 6-6.5 29.8-38.3 32-42.7 4.1-8.1 4.1-14.6.2-18.6-1.6-1.5-4.7-3.4-7-4.1-4.2-1.2-4.2-1.2-4.2-6.1V188h67v9.5l-6.8 3.5c-9.6 4.9-18.9 14.7-46.6 48.7-13.1 16-23.9 29.4-23.9 29.7-.1.3 11.7 16.6 26.3 36.3 28.4 38.4 38.3 49.7 48.2 54.8l5.8 3v9.5h-82v-9.6l5-1.3c2.7-.7 6.3-2.5 8-4.1 2.6-2.4 3-3.5 3-7.9 0-2.9-.6-6.6-1.4-8.5-1.7-4.2-33.3-48.1-34.6-48.1-1.7 0-35.8 45.3-37.5 49.9-3.4 8.8 1.5 17.8 10.4 19.2l4.1.7v9.7h-68v-9.5l6.8-3.5c4.6-2.3 9.4-6.1 15.2-12 11.2-11.1 58.3-69.7 57.4-71.2-1.2-1.9-44.4-60.9-49.2-67.2-6.8-8.8-14.5-16-20.7-19.2-5.5-2.9-5.5-2.9-5.5-7.7V188h80v4.8z"/></svg>