<?xml version="1.0" encoding="UTF-8"?>
<svg version="1.0" fill="black" viewBox="0 0 50 40" xmlns="http://www.w3.org/2000/svg" xmlns:cc="http://web.resource.org/cc/" xmlns:dc="http://purl.org/dc/elements/1.1/" xmlns:rdf="http://www.w3.org/1999/02/22-rdf-syntax-ns#">
<g transform="translate(-306.43 -335.22)">
<g transform="translate(131.43 99.35)">
<path d="m200 237.87c-9.9141 0-18 8.0859-18 18 0 9.9141 8.0859 18 18 18 9.9141 0 18-8.0859 18-18 0-9.9141-8.0859-18-18-18zm0 4c7.7499 0 14 6.2501 14 14s-6.2501 14-14 14c-7.7499 0-14-6.2501-14-14s6.2501-14 14-14z" color="black"/>
<path d="m200.25 242.62c-1.1046 0.01723-1.986 0.92667-1.9688 2.0312v13.719c-0.0088 0.73187 0.38285 1.4101 1.0211 1.7683 0.63827 0.35822 1.4212 0.33921 2.0414-0.04957l7.2812-4.4688c0.63407-0.36193 1.0206-1.0406 1.0084-1.7706s-0.42119-1.3953-1.067-1.7359c-0.64582-0.34053-1.4259-0.30213-2.0351 0.10018l-4.25 2.5938v-10.156c0.00847-0.54127-0.20282-1.0629-0.5856-1.4456s-0.90438-0.59407-1.4456-0.5856z" fill-rule="evenodd"/>
</g>
</g>
</svg>
